# xmcd
#
# Track frame offsets:
#  150
#  17986
#  33903
#  52508
#  63337
#  78173
#  96425
#  113044
#  130125
#  144312
#  162670
#  175462
#
# Disc length: 2663 seconds
#
# Revision: 0
# Processed by: cddbd v1.4PL0 Copyright (c) Steve Scherf et al.
# Submitted via: AltoMP3_Maker 3.0
#
DISCID=980a650c
DTITLE=Rob Strong - Play That Funky Music
DYEAR=1900
DGENRE=
TTITLE0=Play that funky music
TTITLE1=The thrill is gone
TTITLE2=Never make your move too soon
TTITLE3=The boys are back in town
TTITLE4=Hold on
TTITLE5=Come together
TTITLE6=Give me all your lovin'
TTITLE7=You do something to me
TTITLE8=Barefootin'
TTITLE9=Undercover agent
TTITLE10=Fire
TTITLE11=Hollywood nights
EXTD=
EXTT0=
EXTT1=
EXTT2=
EXTT3=
EXTT4=
EXTT5=
EXTT6=
EXTT7=
EXTT8=
EXTT9=
EXTT10=
EXTT11=
PLAYORDER=
